<svg width="160" height="32" viewBox="0 0 160 32" fill="none" xmlns="http://www.w3.org/2000/svg">
    <path d="M21.0784 1.81132V0H13.9194V1.81132C13.9194 7.24187 9.51703 11.6442 4.08648 11.6442L0.205078 11.6442V18.8032L4.08648 18.8032C5.87844 18.8032 7.60562 18.5258 9.22741 18.0117C6.05618 21.0985 4.08648 25.4136 4.08648 30.1887H11.2455C11.2455 24.7581 15.6478 20.3558 21.0784 20.3558H24.8735V13.1968H20.9921C19.231 13.2055 17.5332 13.4824 15.9375 13.9883C19.1087 10.9015 21.0784 6.58643 21.0784 1.81132Z"
          fill="black"/>
    <path d="M11.2455 30.1887V32H4.08648V30.1887H11.2455Z" fill="black"/>
    <path fill-rule="evenodd" clip-rule="evenodd"
          d="M142.479 15.8833C142.479 21.5167 145.762 25 150.795 25C155.812 25 159.112 21.5333 159.112 15.8833V15.85C159.112 10.2333 155.779 6.78333 150.779 6.78333C145.795 6.78333 142.479 10.25 142.479 15.85V15.8833ZM155.429 15.8833C155.429 19.75 153.629 21.9833 150.812 21.9833C147.995 21.9833 146.162 19.7667 146.162 15.8833V15.85C146.162 12.0167 148.012 9.8 150.779 9.8C153.595 9.8 155.429 12.0167 155.429 15.85V15.8833Z"
          fill="black"/>
    <path d="M138.428 4.41667C137.261 4.41667 136.328 3.48333 136.328 2.35C136.328 1.2 137.261 0.266667 138.428 0.266667C139.611 0.266667 140.528 1.2 140.528 2.35C140.528 3.48333 139.611 4.41667 138.428 4.41667Z" fill="black"/>
    <path d="M136.628 24.65V7.11667H140.228V24.65H136.628Z" fill="black"/>
    <path d="M129.344 22.7167C129.344 23.9333 130.311 24.9 131.544 24.9C132.761 24.9 133.727 23.9333 133.727 22.7167C133.727 21.4833 132.761 20.5333 131.544 20.5333C130.311 20.5333 129.344 21.4833 129.344 22.7167Z" fill="black"/>
    <path d="M122.877 24.65V0.6H126.477V24.65H122.877Z" fill="black"/>
    <path fill-rule="evenodd" clip-rule="evenodd"
          d="M104.609 15.95C104.609 21.4833 107.726 25 112.876 25C117.126 25 119.826 22.4667 120.393 19.6833L120.426 19.5H117.009L116.959 19.6333C116.509 20.95 115.093 22.05 112.959 22.05C110.093 22.05 108.276 20.1167 108.209 16.8H120.626V15.5833C120.626 10.3167 117.609 6.78333 112.693 6.78333C107.776 6.78333 104.609 10.45 104.609 15.9333V15.95ZM108.259 14.25C108.576 11.3167 110.376 9.73333 112.709 9.73333C115.059 9.73333 116.759 11.2167 117.059 14.25H108.259Z"
          fill="black"/>
    <path d="M93.442 25C89.592 25 87.392 22.5167 87.392 18.4833V7.11667H90.992V17.7833C90.992 20.4333 92.2253 21.9 94.7253 21.9C97.2586 21.9 98.892 20.0833 98.892 17.35V7.11667H102.509V24.65H98.892V22.0167H98.8086C97.892 23.7833 96.1086 25 93.442 25Z"
          fill="black"/>
    <path fill-rule="evenodd" clip-rule="evenodd"
          d="M81.008 21.7667V30.4833H84.6246V7.11667H81.008V10.1333H80.9246C79.8913 8.13333 77.958 6.8 75.4913 6.8C71.0413 6.8 68.108 10.3 68.108 15.85V15.8667C68.108 21.45 71.008 24.9667 75.408 24.9667C77.9246 24.9667 79.9246 23.7333 80.9246 21.7667H81.008ZM81.008 15.8833C81.008 19.5167 79.1746 21.8667 76.4246 21.8667C73.5746 21.8667 71.7913 19.5833 71.7913 15.8667V15.85C71.7913 12.2167 73.5746 9.9 76.4246 9.9C79.158 9.9 81.008 12.2333 81.008 15.8667V15.8833Z"
          fill="black"/>
    <path fill-rule="evenodd" clip-rule="evenodd"
          d="M59.024 25C53.874 25 50.7573 21.4833 50.7573 15.95V15.9333C50.7573 10.45 53.924 6.78333 58.8406 6.78333C63.7573 6.78333 66.774 10.3167 66.774 15.5833V16.8H54.3573C54.424 20.1167 56.2406 22.05 59.1073 22.05C61.2406 22.05 62.6573 20.95 63.1073 19.6333L63.1573 19.5H66.574L66.5406 19.6833C65.974 22.4667 63.274 25 59.024 25ZM58.8573 9.73333C56.524 9.73333 54.724 11.3167 54.4073 14.25H63.2073C62.9073 11.2167 61.2073 9.73333 58.8573 9.73333Z"
          fill="black"/>
    <path d="M34.9733 19.6333C35.34 22.8333 37.9066 25 42.29 25C46.4233 25 49.4233 22.8 49.4233 19.6V19.5833C49.4233 17.0667 48.0566 15.65 44.4733 14.8167L41.6233 14.1667C39.74 13.7167 39.0233 12.9833 39.0233 11.9V11.8833C39.0233 10.4833 40.24 9.56667 42.1733 9.56667C44.2066 9.56667 45.4066 10.6333 45.6233 12.1667L45.64 12.2833H49.0233L49.0066 12.0833C48.8233 9.1 46.3233 6.78333 42.1733 6.78333C38.14 6.78333 35.4066 8.93333 35.4066 12.0667V12.0833C35.4066 14.6333 37.0566 16.2333 40.39 17L43.2566 17.65C45.14 18.1 45.7733 18.75 45.7733 19.8833V19.9C45.7733 21.3167 44.4733 22.2167 42.3066 22.2167C40.09 22.2167 38.89 21.2667 38.5566 19.65L38.5233 19.4833H34.9566L34.9733 19.6333Z"
          fill="black"/>
</svg>
